<!DOCTYPE svg PUBLIC "-//W3C//DTD SVG 1.1//EN" "http://www.w3.org/Graphics/SVG/1.1/DTD/svg11.dtd">

<!-- Uploaded to: SVG Repo, www.svgrepo.com, Transformed by: SVG Repo Mixer Tools -->
<svg fill="#ffffff" version="1.1" id="Capa_1" xmlns="http://www.w3.org/2000/svg" xmlns:xlink="http://www.w3.org/1999/xlink" width="32px" height="32px" viewBox="0 0 82.92 82.92" xml:space="preserve" stroke="#ffffff" stroke-width="0.0008291899999999999">

<g id="SVGRepo_bgCarrier" stroke-width="0"/>

<g id="SVGRepo_tracerCarrier" stroke-linecap="round" stroke-linejoin="round"/>

<g id="SVGRepo_iconCarrier"> <g> <g> <path d="M12.31,16.345v23.072v4.556c0,8.717,3.852,16.547,9.937,21.894V81.92c0,0.555,0.446,1,1,1h36.336c0.553,0,1-0.445,1-1 V65.945C66.72,60.6,70.61,52.732,70.61,43.973c0-0.005-0.002-0.008-0.002-0.011c0-0.106-0.026-0.213-0.063-0.313 c-0.006-0.021-0.004-0.047-0.015-0.066c-0.008-0.02-0.026-0.035-0.036-0.055c-0.05-0.1-0.105-0.19-0.183-0.269 c-0.002-0.002-0.004-0.005-0.006-0.008l-6.554-6.331c0.271-0.18,0.453-0.47,0.453-0.814V7.237C64.205,3.246,60.958,0,56.966,0 c-3.987,0-7.233,3.247-7.233,7.237v13.026v1.268c-1.349-1.414-3.228-2.268-5.235-2.268c-2.654,0-4.979,1.435-6.239,3.569 c-1.26-2.135-3.584-3.569-6.236-3.569c-2.061,0-3.917,0.869-5.235,2.256v-5.176c0-3.99-3.247-7.236-7.238-7.236 C15.559,9.107,12.31,12.355,12.31,16.345z M24.244,76.736h34.337v4.184H24.244V76.736z M58.582,74.736H24.244v-7.262 c4.827,3.545,10.779,5.646,17.216,5.646c6.395,0,12.311-2.076,17.122-5.58V74.736z M51.733,7.237C51.733,4.349,54.082,2,56.966,2 c2.892,0,5.238,2.351,5.238,5.237v28.188l-10.473-10.12V23.19v-2.926L51.733,7.237L51.733,7.237z M44.496,21.265 c1.961,0,3.752,1.112,4.647,2.846c-0.213,0.027-0.42,0.105-0.584,0.269c-4.478,4.477-4.478,11.757,0,16.233l1.047,1.047 c-0.522,2.383-2.662,4.107-5.11,4.107c-2.891,0-5.238-2.352-5.238-5.238v-4.028v-10C39.258,23.613,41.606,21.265,44.496,21.265z M53.73,45.793c-0.043-0.006-0.082-0.023-0.125-0.023h-4.158c0.744-0.701,1.359-1.545,1.756-2.518l2.543,2.543 C53.737,45.793,53.733,45.793,53.73,45.793z M32.022,21.265c2.889,0,5.236,2.35,5.236,5.236v10c0,2.889-2.35,5.237-5.236,5.237 c-2.888,0-5.235-2.351-5.235-5.237v-10C26.784,23.613,29.133,21.265,32.022,21.265z M19.546,11.107c2.89,0,5.238,2.35,5.238,5.236 V26.5v10c0,3.991,3.245,7.236,7.235,7.236c2.088,0,3.971-0.889,5.293-2.308c0.212,1.697,1.021,3.212,2.201,4.335h-16.27 c-0.554,0-1,0.447-1,1s0.446,1,1,1h26.571l-8.851,5.021c-0.479,0.271-0.648,0.883-0.377,1.361 c0.186,0.322,0.521,0.506,0.871,0.506c0.167,0,0.337-0.043,0.492-0.131l12.145-6.893c0.037-0.021,0.062-0.057,0.096-0.082 c0.059-0.043,0.109-0.084,0.158-0.137c0.043-0.049,0.07-0.102,0.104-0.154c0.031-0.053,0.063-0.105,0.086-0.17 c0.021-0.064,0.029-0.133,0.041-0.201c0.004-0.042,0.023-0.078,0.023-0.124c0-0.021-0.012-0.034-0.014-0.056 c0-0.021,0.01-0.043,0.004-0.062l4.279,4.275c0.192,0.195,0.448,0.293,0.707,0.293c0.256,0,0.512-0.098,0.707-0.293 c0.391-0.393,0.391-1.021,0-1.414L49.974,39.197c-3.629-3.63-3.686-9.489-0.186-13.199c0.006,0.021,0.006,0.04,0.012,0.061 c0.008,0.019,0.006,0.042,0.014,0.061c0.01,0.021,0.029,0.038,0.039,0.059c0.049,0.097,0.105,0.188,0.184,0.264 c0.002,0.002,0.004,0.005,0.006,0.008l18.562,17.939c-0.121,8.043-3.758,15.243-9.438,20.143c-0.158,0.072-0.281,0.191-0.381,0.33 c-4.705,3.908-10.744,6.263-17.324,6.263c-14.972,0-27.15-12.181-27.15-27.149v-4.555V16.345 C14.31,13.457,16.658,11.107,19.546,11.107z"/> </g> </g> </g>

</svg>